<?xml version="1.0" standalone="no"?><!DOCTYPE svg PUBLIC "-//W3C//DTD SVG 1.1//EN" "http://www.w3.org/Graphics/SVG/1.1/DTD/svg11.dtd"><svg t="1633952437157" class="icon" viewBox="0 0 1024 1024" version="1.1" xmlns="http://www.w3.org/2000/svg" p-id="5217" xmlns:xlink="http://www.w3.org/1999/xlink" width="200" height="200"><defs><style type="text/css"></style></defs><path d="M405.333333 234.666667m-85.333333 0a85.333333 85.333333 0 1 0 170.666667 0 85.333333 85.333333 0 1 0-170.666667 0Z" fill="#388E3C" p-id="5218"></path><path d="M170.666667 469.333333m-85.333334 0a85.333333 85.333333 0 1 0 170.666667 0 85.333333 85.333333 0 1 0-170.666667 0Z" fill="#388E3C" p-id="5219"></path><path d="M315.946667 244.48c-44.373333-44.373333-21.333333-79.36-57.173334-115.413333a76.586667 76.586667 0 0 0-108.373333 108.373333c34.773333 34.773333 68.48 10.24 115.413333 57.173333a35.413333 35.413333 0 1 0 50.133334-50.133333zM755.626667 713.386667c38.186667 38.4 18.133333 68.266667 49.066666 99.2a65.92 65.92 0 0 0 93.226667-93.226667c-29.866667-29.866667-58.666667-8.746667-99.2-49.066667a30.506667 30.506667 0 0 0-42.666667 42.666667zM482.346667 772.906667C482.346667 825.386667 448 832 448 874.666667a64 64 0 0 0 128 0c0-40.96-34.346667-46.293333-34.346667-101.76a29.653333 29.653333 0 1 0-59.306666 0z" fill="#388E3C" p-id="5220"></path><path d="M503.68 114.986667c0 52.48-34.346667 59.306667-34.346667 101.76a64 64 0 0 0 128 0c0-40.96-34.346667-46.08-34.346666-101.76a29.653333 29.653333 0 0 0-59.306667 0z" fill="#43A047" p-id="5221"></path><path d="M790.4 372.266667c42.666667-27.306667 65.28-3.2 99.2-25.386667a61.013333 61.013333 0 0 0-66.56-102.4c-32.853333 21.333333-19.2 51.626667-64 80.426667a28.373333 28.373333 0 1 0 30.933333 47.36zM657.92 241.28c11.306667-33.066667 34.56-29.866667 43.733333-56.746667a42.666667 42.666667 0 0 0-80.64-27.733333c-8.96 25.813333 11.52 36.693333 0 71.68a19.84 19.84 0 0 0 12.16 25.173333 20.053333 20.053333 0 0 0 24.746667-12.373333zM738.986667 197.973333c-29.866667 29.866667-34.773333 14.293333-49.066667 32.64a34.986667 34.986667 0 0 0 55.466667 42.666667c13.653333-17.706667 0-31.573333 19.2-55.68a16 16 0 0 0-2.773334-22.613333 17.28 17.28 0 0 0-22.826666 2.986666zM178.346667 326.613333c31.146667 22.826667 17.706667 29.653333 36.48 39.893334a32.213333 32.213333 0 0 0 31.146666-56.32c-18.133333-10.026667-28.8 3.84-53.333333-9.6a14.72 14.72 0 0 0-20.266667 5.76 15.786667 15.786667 0 0 0 5.973334 20.266666z" fill="#388E3C" p-id="5222"></path><path d="M325.546667 846.293333c21.333333-29.866667 28.586667-16.853333 39.04-34.56a31.36 31.36 0 0 0-11.52-42.666666 31.146667 31.146667 0 0 0-42.666667 11.52c-9.813333 17.28 3.413333 27.733333-10.026667 51.2a14.293333 14.293333 0 0 0 5.333334 19.626666 15.36 15.36 0 0 0 19.84-5.12z" fill="#43A047" p-id="5223"></path><path d="M722.986667 859.306667c-23.68-59.306667-8.106667-65.92-25.173334-96.853334-14.293333-25.813333-37.546667-26.026667-64-11.733333s-43.946667 37.546667-29.866666 64c16.64 29.866667 52.906667 28.8 75.306666 69.333333a24.746667 24.746667 0 0 0 33.493334 9.386667 25.813333 25.813333 0 0 0 10.24-34.133333z" fill="#388E3C" p-id="5224"></path><path d="M417.706667 863.573333c14.08-35.84 23.893333-24.533333 29.226666-45.013333a32 32 0 1 0-61.866666-16c-5.12 19.84 10.88 26.666667 3.84 53.546667a14.933333 14.933333 0 0 0 10.666666 18.133333 15.786667 15.786667 0 0 0 18.133334-10.666667zM190.506667 661.333333c33.493333-11.946667 31.786667 1.706667 49.28-7.253333A29.653333 29.653333 0 1 0 213.333333 600.32c-16.853333 8.533333-11.733333 23.893333-34.773333 35.413333a13.866667 13.866667 0 0 0-5.973333 18.56 14.506667 14.506667 0 0 0 17.92 7.04z" fill="#43A047" p-id="5225"></path><path d="M248.746667 696.32c-32 32-57.173333 15.146667-83.2 41.173333a55.466667 55.466667 0 1 0 78.293333 78.293334c24.96-25.173333 7.253333-49.28 41.173333-83.2a25.6 25.6 0 0 0-36.266666-36.266667z" fill="#388E3C" p-id="5226"></path><path d="M512 512m-341.333333 0a341.333333 341.333333 0 1 0 682.666666 0 341.333333 341.333333 0 1 0-682.666666 0Z" fill="#4CAF50" p-id="5227"></path><path d="M810.666667 512m-106.666667 0a106.666667 106.666667 0 1 0 213.333333 0 106.666667 106.666667 0 1 0-213.333333 0Z" fill="#81C784" p-id="5228"></path><path d="M618.666667 426.666667m-42.666667 0a42.666667 42.666667 0 1 0 85.333333 0 42.666667 42.666667 0 1 0-85.333333 0Z" fill="#81C784" p-id="5229"></path><path d="M315.733333 554.666667m-42.666666 0a42.666667 42.666667 0 1 0 85.333333 0 42.666667 42.666667 0 1 0-85.333333 0Z" fill="#81C784" p-id="5230"></path><path d="M533.333333 640m-106.666666 0a106.666667 106.666667 0 1 0 213.333333 0 106.666667 106.666667 0 1 0-213.333333 0Z" fill="#81C784" p-id="5231"></path><path d="M405.333333 341.333333m-85.333333 0a85.333333 85.333333 0 1 0 170.666667 0 85.333333 85.333333 0 1 0-170.666667 0Z" fill="#81C784" p-id="5232"></path></svg>